<svg width="53" height="62" viewBox="0 0 53 62" fill="none" xmlns="http://www.w3.org/2000/svg">
<path d="M13.6976 1.03711L0 7.92239L2.71715 11.2384V42.7571L13.6976 31.5267V1.03711Z" fill="#E02E26"/>
<path d="M26.4046 49.5688C26.4046 51.3003 25.2618 52.0354 23.9911 52.0354C22.3049 52.0354 21.9133 50.9818 21.9133 49.8465V39.9392H21.8413L16.415 45.485V51.1452C16.415 54.2652 18.0453 57.0095 21.8174 57.0095C23.4796 57.0095 25.1738 56.2989 26.4046 55.1309V56.6419H31.9028V39.9392H26.4046V49.5688ZM45.3447 39.5962C43.4746 39.5962 41.9323 40.2741 40.6936 41.5074V39.9392H35.1714V61.9999H40.6936V55.1146C41.9323 56.2907 43.4746 56.9932 45.3447 56.9932C49.9079 56.9932 52.7449 53.2606 52.7449 48.2947C52.7449 43.3941 49.8999 39.5962 45.3447 39.5962ZM43.8662 52.1906C41.7565 52.1906 40.6936 50.4019 40.6936 48.2702C40.6936 46.1384 41.7245 44.3824 43.8662 44.3824C45.952 44.3824 46.919 46.1711 46.919 48.2702C46.911 50.3366 45.952 52.1906 43.8662 52.1906Z" fill="white"/>
<path d="M35.3067 0C25.533 0 17.6133 8.09408 17.6133 18.083C17.6133 20.8437 18.2366 23.4491 19.3155 25.7851L19.4993 25.9811L30.4318 14.8078L26.9954 11.2958H41.9557V26.5855L38.5193 23.0734L27.5149 34.3039C29.8644 35.4882 32.5017 36.1661 35.3067 36.1661C45.0805 36.1661 53.0001 28.072 53.0001 18.083C53.0001 8.09408 45.0805 0 35.3067 0Z" fill="#E02E26"/>
</svg>
