<svg width="171" height="40" viewBox="0 0 171 40" fill="none" xmlns="http://www.w3.org/2000/svg">
<path d="M61.82 31H76.7V27.7H65.72V10H61.82V31Z" fill="white"/>
<path d="M95.8081 31.3C102.318 31.3 107.118 26.74 107.118 20.5C107.118 14.26 102.318 9.70001 95.8081 9.70001C89.2981 9.70001 84.4981 14.29 84.4981 20.5C84.4981 26.71 89.2981 31.3 95.8081 31.3ZM95.8081 27.88C91.5781 27.88 88.4281 24.79 88.4281 20.5C88.4281 16.21 91.5781 13.12 95.8081 13.12C100.038 13.12 103.188 16.21 103.188 20.5C103.188 24.79 100.038 27.88 95.8081 27.88Z" fill="white"/>
<path d="M132.192 26.8C130.842 27.58 129.372 27.88 127.872 27.88C123.432 27.88 120.282 24.76 120.282 20.5C120.282 16.15 123.432 13.12 127.902 13.12C130.152 13.12 132.042 13.87 133.692 15.52L136.152 13.12C134.172 10.87 131.232 9.70001 127.722 9.70001C121.152 9.70001 116.352 14.23 116.352 20.5C116.352 26.77 121.152 31.3 127.662 31.3C130.632 31.3 133.692 30.4 135.882 28.63V20.26H132.192V26.8Z" fill="white"/>
<path d="M158.936 31.3C165.446 31.3 170.246 26.74 170.246 20.5C170.246 14.26 165.446 9.70001 158.936 9.70001C152.426 9.70001 147.626 14.29 147.626 20.5C147.626 26.71 152.426 31.3 158.936 31.3ZM158.936 27.88C154.706 27.88 151.556 24.79 151.556 20.5C151.556 16.21 154.706 13.12 158.936 13.12C163.166 13.12 166.316 16.21 166.316 20.5C166.316 24.79 163.166 27.88 158.936 27.88Z" fill="white"/>
<path d="M20 10C20 15.5229 15.5229 20 10 20H0V10C0 4.47714 4.47714 0 10 0C15.5229 0 20 4.47714 20 10Z" fill="#17CF97"/>
<path d="M20 30C20 24.4771 24.4771 20 30 20H40V30C40 35.5229 35.5229 40 30 40C24.4771 40 20 35.5229 20 30Z" fill="#17CF97"/>
<path d="M0 30C0 35.5229 4.47714 40 10 40H20V30C20 24.4771 15.5229 20 10 20C4.47714 20 0 24.4771 0 30Z" fill="#17CF97"/>
<path d="M40 10C40 4.47714 35.5229 0 30 0H20V10C20 15.5229 24.4771 20 30 20C35.5229 20 40 15.5229 40 10Z" fill="#17CF97"/>
</svg>
